<svg width="31" height="31" viewBox="0 0 31 31" fill="none" xmlns="http://www.w3.org/2000/svg">
<path d="M19.4719 11.625H18.4062C17.8924 11.625 17.3996 11.8291 17.0362 12.1925C16.6729 12.5558 16.4687 13.0487 16.4687 13.5625V17.4375C16.4687 18.4652 16.0605 19.4508 15.3338 20.1776C14.6071 20.9043 13.6215 21.3125 12.5937 21.3125H11.5281C11.288 22.4886 10.6198 23.5337 9.65301 24.2451C8.6862 24.9565 7.48966 25.2836 6.29539 25.163C5.10111 25.0423 3.99417 24.4825 3.18917 23.5921C2.38418 22.7017 1.93848 21.5441 1.93848 20.3438C1.93848 19.1434 2.38418 17.9858 3.18917 17.0954C3.99417 16.205 5.10111 15.6452 6.29539 15.5245C7.48966 15.4039 8.6862 15.731 9.65301 16.4424C10.6198 17.1538 11.288 18.1989 11.5281 19.375H12.5937C13.1076 19.375 13.6004 19.1709 13.9638 18.8075C14.3271 18.4442 14.5312 17.9514 14.5312 17.4375V13.5625C14.5312 12.5348 14.9395 11.5492 15.6662 10.8225C16.3929 10.0958 17.3785 9.68751 18.4062 9.68751H19.4719C19.7119 8.51141 20.3801 7.46634 21.347 6.75491C22.3138 6.04349 23.5103 5.71639 24.7046 5.83704C25.8989 5.95769 27.0058 6.51748 27.8108 7.40789C28.6158 8.29831 29.0615 9.45591 29.0615 10.6563C29.0615 11.8566 28.6158 13.0142 27.8108 13.9046C27.0058 14.795 25.8989 15.3548 24.7046 15.4755C23.5103 15.5961 22.3138 15.269 21.347 14.5576C20.3801 13.8462 19.7119 12.8011 19.4719 11.625Z" fill="#6D6D6D"/>
</svg>
