<svg width="151" height="476" viewBox="0 0 151 476" fill="none" xmlns="http://www.w3.org/2000/svg">
<path d="M71.7269 69.9682L49.3669 77.3282V45.1382H69.657L71.7269 69.9682Z" fill="#9F616A"/>
<path d="M52.1369 54.0483C64.4418 54.0483 74.4169 44.0732 74.4169 31.7683C74.4169 19.4634 64.4418 9.48828 52.1369 9.48828C39.832 9.48828 29.8569 19.4634 29.8569 31.7683C29.8569 44.0732 39.832 54.0483 52.1369 54.0483Z" fill="#9F616A"/>
<path d="M58.2569 29.5584C54.5269 29.4484 52.077 25.6784 50.627 22.2384C49.177 18.7984 47.6869 14.8484 44.2269 13.4284C41.3969 12.2684 36.4069 20.1184 34.1769 18.0284C31.8469 15.8484 34.1169 4.65837 36.5869 2.64837C39.0569 0.638366 42.4369 0.248363 45.6169 0.0983628C53.3769 -0.261637 61.1869 0.368363 68.7969 1.95836C73.5069 2.93836 78.347 4.41836 81.747 7.81836C86.047 12.1384 87.1469 18.6484 87.4569 24.7384C87.7769 30.9684 87.4169 37.4884 84.3869 42.9384C81.3569 48.3884 75.017 52.4084 68.937 51.0184C68.327 47.7184 68.947 44.3284 69.187 40.9684C69.417 37.6184 69.177 33.9984 67.127 31.3284C65.087 28.6584 60.7069 27.5984 58.3269 29.9684" fill="#2F2E43"/>
<path d="M85.667 37.2784C87.897 35.6484 90.567 34.2784 93.307 34.6184C96.267 34.9784 98.777 37.4184 99.537 40.3084C100.297 43.1984 99.447 46.3784 97.607 48.7384C95.777 51.0984 93.047 52.6584 90.167 53.4384C88.497 53.8884 86.667 54.0784 85.077 53.3984C82.737 52.3884 81.467 49.3984 82.387 47.0184" fill="#2F2E43"/>
<path d="M0.407023 246.908C-1.08298 254.228 1.64701 260.918 6.48701 261.848C11.327 262.778 16.457 257.588 17.937 250.268C18.567 247.348 18.467 244.328 17.647 241.448L36.077 126.698L13.027 122.358L4.12702 238.858C2.23702 241.218 0.967023 243.978 0.407023 246.918V246.908Z" fill="#9F616A"/>
<path d="M49.127 62.5583H33.397C22.277 64.2483 19.257 70.1783 16.727 81.1383C12.867 97.8583 7.93695 120.118 8.91695 120.448C10.487 120.968 37.267 133.568 50.917 130.688L49.127 62.5583Z" fill="#E2E3E4"/>
<path d="M64.337 428.068H43.397V457.778H64.337V428.068Z" fill="#9F616A"/>
<path d="M23.007 475.758C20.807 475.758 18.847 475.708 17.367 475.568C11.807 475.058 6.49701 470.948 3.82701 468.548C2.62701 467.468 2.24702 465.748 2.86702 464.268C3.31702 463.208 4.20703 462.408 5.31703 462.098L20.017 457.898L43.817 441.838L44.087 442.318C44.187 442.498 46.527 446.708 47.307 449.548C47.607 450.628 47.527 451.528 47.077 452.228C46.767 452.708 46.327 452.988 45.977 453.148C46.407 453.598 47.757 454.518 51.917 455.178C57.987 456.138 59.267 449.848 59.317 449.588L59.357 449.378L59.537 449.258C62.427 447.398 64.207 446.548 64.817 446.728C65.197 446.838 65.837 447.038 67.567 464.168C67.737 464.708 68.947 468.648 68.127 472.418C67.237 476.518 49.317 475.108 45.727 474.788C45.627 474.798 32.207 475.758 23.017 475.758H23.007Z" fill="#2F2E43"/>
<path d="M123.963 404.726L106.195 415.807L121.917 441.016L139.685 429.935L123.963 404.726Z" fill="#9F616A"/>
<path d="M100.367 471.688C97.907 471.688 95.6471 471.389 94.0371 471.109C92.4571 470.829 91.217 469.569 90.957 467.989C90.777 466.849 91.107 465.698 91.887 464.848L102.137 453.508L113.837 427.288L114.317 427.548C114.497 427.648 118.707 429.978 120.877 431.978C121.707 432.738 122.117 433.548 122.097 434.378C122.087 434.958 121.867 435.418 121.647 435.748C122.247 435.908 123.877 435.968 127.757 434.328C133.417 431.938 131.177 425.918 131.077 425.668L130.997 425.468L131.087 425.278C132.557 422.168 133.607 420.508 134.227 420.338C134.617 420.228 135.257 420.058 145.787 433.688C146.217 434.048 149.327 436.758 150.627 440.388C152.037 444.338 136.087 452.628 132.877 454.248C132.777 454.328 116.087 466.458 109.227 469.908C106.507 471.278 103.287 471.698 100.357 471.698L100.367 471.688Z" fill="#2F2E43"/>
<path d="M79.757 179.618H21.127L15.807 234.158L39.087 435.678H69.017L57.047 319.288L105.597 424.368L132.197 405.748L94.287 307.648C94.287 307.648 107.827 222.188 97.187 200.898C86.547 179.618 79.757 179.618 79.757 179.618Z" fill="#2F2E43"/>
<path d="M108.927 182.938H15.807L43.747 62.5583H84.317L108.927 182.938Z" fill="#E2E3E4"/>
<path d="M117.307 246.908C118.797 254.228 116.067 260.918 111.227 261.848C106.387 262.778 101.257 257.588 99.777 250.268C99.147 247.348 99.247 244.328 100.067 241.448L81.637 126.698L104.687 122.358L113.587 238.858C115.477 241.218 116.747 243.978 117.307 246.918V246.908Z" fill="#9F616A"/>
<path d="M68.587 62.5583H84.317C95.437 64.2483 98.457 70.1783 100.987 81.1383C104.847 97.8583 109.777 120.118 108.797 120.448C107.227 120.968 80.447 133.568 66.797 130.688L68.587 62.5583Z" fill="#E2E3E4"/>
</svg>
