<svg width="1440" height="884" viewBox="0 0 1440 884" fill="none" xmlns="http://www.w3.org/2000/svg">
<path d="M376 662C376 662.555 376.511 663 377.148 663H1080.85C1081.49 663 1082 662.555 1082 662C1082 661.445 1081.49 661 1080.85 661H377.148C376.511 661 376 661.445 376 662Z" fill="#3F3D58"/>
<path d="M978.727 255.968L956.367 263.328V231.138H976.657L978.727 255.968Z" fill="#9F616A"/>
<path d="M959.137 240.048C971.442 240.048 981.417 230.073 981.417 217.768C981.417 205.463 971.442 195.488 959.137 195.488C946.832 195.488 936.857 205.463 936.857 217.768C936.857 230.073 946.832 240.048 959.137 240.048Z" fill="#9F616A"/>
<path d="M965.257 215.558C961.527 215.448 959.077 211.678 957.627 208.238C956.177 204.798 954.687 200.848 951.227 199.428C948.397 198.268 943.407 206.118 941.177 204.028C938.847 201.848 941.117 190.658 943.587 188.648C946.057 186.638 949.437 186.248 952.617 186.098C960.377 185.738 968.187 186.368 975.797 187.958C980.507 188.938 985.347 190.418 988.747 193.818C993.047 198.138 994.147 204.648 994.457 210.738C994.777 216.968 994.417 223.488 991.387 228.938C988.357 234.388 982.017 238.408 975.937 237.018C975.327 233.718 975.947 230.328 976.187 226.968C976.417 223.618 976.177 219.998 974.127 217.328C972.087 214.658 967.707 213.598 965.327 215.968" fill="#2F2E43"/>
<path d="M992.667 223.278C994.897 221.648 997.567 220.278 1000.31 220.618C1003.27 220.978 1005.78 223.418 1006.54 226.308C1007.3 229.198 1006.45 232.378 1004.61 234.738C1002.78 237.098 1000.05 238.658 997.167 239.438C995.497 239.888 993.667 240.078 992.077 239.398C989.737 238.388 988.467 235.398 989.387 233.018" fill="#2F2E43"/>
<path d="M907.407 432.908C905.917 440.228 908.647 446.918 913.487 447.848C918.327 448.778 923.457 443.588 924.937 436.268C925.567 433.348 925.467 430.328 924.647 427.448L943.077 312.698L920.027 308.358L911.127 424.858C909.237 427.218 907.967 429.978 907.407 432.918V432.908Z" fill="#9F616A"/>
<path d="M956.127 248.558H940.397C929.277 250.248 926.257 256.178 923.727 267.138C919.867 283.858 914.937 306.118 915.917 306.448C917.487 306.968 944.267 319.568 957.917 316.688L956.127 248.558Z" fill="#E2E3E4"/>
<path d="M971.337 614.068H950.397V643.778H971.337V614.068Z" fill="#9F616A"/>
<path d="M930.007 661.758C927.807 661.758 925.847 661.708 924.367 661.568C918.807 661.058 913.497 656.948 910.827 654.548C909.627 653.468 909.247 651.748 909.867 650.268C910.317 649.208 911.207 648.408 912.317 648.098L927.017 643.898L950.817 627.838L951.087 628.318C951.187 628.498 953.527 632.708 954.307 635.548C954.607 636.628 954.527 637.528 954.077 638.228C953.767 638.708 953.327 638.988 952.977 639.148C953.407 639.598 954.757 640.518 958.917 641.178C964.987 642.138 966.267 635.848 966.317 635.588L966.357 635.378L966.537 635.258C969.427 633.398 971.207 632.548 971.817 632.728C972.197 632.838 972.837 633.038 974.567 650.168C974.737 650.708 975.947 654.648 975.127 658.418C974.237 662.518 956.317 661.108 952.727 660.788C952.627 660.798 939.207 661.758 930.017 661.758H930.007Z" fill="#2F2E43"/>
<path d="M1030.96 590.726L1013.2 601.807L1028.92 627.016L1046.69 615.935L1030.96 590.726Z" fill="#9F616A"/>
<path d="M1007.37 657.688C1004.91 657.688 1002.65 657.388 1001.04 657.108C999.457 656.828 998.217 655.568 997.957 653.988C997.777 652.848 998.107 651.698 998.887 650.848L1009.14 639.508L1020.84 613.288L1021.32 613.548C1021.5 613.648 1025.71 615.978 1027.88 617.978C1028.71 618.738 1029.12 619.548 1029.1 620.378C1029.09 620.958 1028.87 621.418 1028.65 621.748C1029.25 621.908 1030.88 621.968 1034.76 620.328C1040.42 617.938 1038.18 611.918 1038.08 611.668L1038 611.468L1038.09 611.278C1039.56 608.168 1040.61 606.508 1041.23 606.338C1041.62 606.228 1042.26 606.058 1052.79 619.688C1053.22 620.048 1056.33 622.758 1057.63 626.388C1059.04 630.338 1043.09 638.628 1039.88 640.248C1039.78 640.328 1023.09 652.458 1016.23 655.908C1013.51 657.278 1010.29 657.698 1007.36 657.698L1007.37 657.688Z" fill="#2F2E43"/>
<path d="M986.757 365.618H928.127L922.807 420.158L946.087 621.678H976.017L964.047 505.288L1012.6 610.368L1039.2 591.748L1001.29 493.648C1001.29 493.648 1014.83 408.188 1004.19 386.898C993.547 365.618 986.757 365.618 986.757 365.618Z" fill="#2F2E43"/>
<path d="M1015.93 368.938H922.807L950.747 248.558H991.317L1015.93 368.938Z" fill="#E2E3E4"/>
<path d="M1024.31 432.908C1025.8 440.228 1023.07 446.918 1018.23 447.848C1013.39 448.778 1008.26 443.588 1006.78 436.268C1006.15 433.348 1006.25 430.328 1007.07 427.448L988.637 312.698L1011.69 308.358L1020.59 424.858C1022.48 427.218 1023.75 429.978 1024.31 432.918V432.908Z" fill="#9F616A"/>
<path d="M975.587 248.558H991.317C1002.44 250.248 1005.46 256.178 1007.99 267.138C1011.85 283.858 1016.78 306.118 1015.8 306.448C1014.23 306.968 987.447 319.568 973.797 316.688L975.587 248.558Z" fill="#E2E3E4"/>
</svg>
