<svg width="698" height="505" viewBox="0 0 698 505" fill="none" xmlns="http://www.w3.org/2000/svg">
<g clip-path="url(#clip0_15_2515)">
<path d="M572.198 5.8098C572.184 5.8567 572.17 5.89789 572.157 5.94479C572.125 6.03471 572.1 6.12665 572.08 6.21997C571.912 6.81861 571.82 7.43604 571.807 8.05765C571.799 8.32286 571.806 8.5883 571.827 8.85277C571.853 9.19208 571.901 9.52926 571.973 9.86196C572.048 10.2323 572.152 10.5962 572.285 10.9502C572.344 11.1184 572.412 11.2835 572.488 11.4448C572.98 12.5458 573.72 13.5179 574.65 14.2846C575.581 15.0513 576.676 15.5918 577.851 15.8635L577.857 15.8631C577.972 15.8928 578.088 15.9165 578.206 15.934C578.861 16.053 579.528 16.0871 580.191 16.0354L580.203 16.0345C581.82 15.9118 583.359 15.2837 584.6 14.239C585.36 13.6081 585.443 12.9417 586.393 13.2374C589.42 14.1805 591.443 9.19081 589.93 6.45768C589.932 6.35467 589.928 6.25163 589.918 6.14905C589.773 4.24002 586.899 3.75335 585.223 2.74007L585.214 2.77385C585.136 3.06992 584.967 3.33411 584.732 3.52951C584.496 3.72491 584.205 3.84174 583.899 3.86366C583.594 3.88557 583.289 3.81147 583.028 3.65174C582.767 3.492 582.562 3.2546 582.442 2.97274C582.136 2.23449 581.858 1.48614 581.608 0.727696C578.395 -1.58632 569.812 2.02924 572.198 5.8098Z" fill="#2F2E41"/>
<path d="M552.054 23.1339C551.617 24.1532 538.13 24.0439 537.512 24.9515C532.75 31.9584 549.917 61.7711 545.155 68.7871L544.492 69.5778C546.045 68.8618 547.538 68.0198 548.954 67.0604C549.081 64.1885 549.209 61.3076 549.345 58.4358C550.771 60.2605 551.923 62.2844 552.762 64.443C553.871 63.6614 554.781 62.2126 559.533 59.3628C561.457 57.2493 563.675 55.4235 566.119 53.9416L552.054 23.1339Z" fill="#2F2E41"/>
<path d="M561.847 80.5595C560.359 79.59 558.661 78.9895 556.894 78.8076C555.127 78.6258 553.342 78.8678 551.688 79.5138C550.033 80.1598 548.557 81.191 547.381 82.5219C546.204 83.8528 545.363 85.445 544.925 87.1664L524.43 140.565L489.202 120.566C489.047 118.267 488.169 116.076 486.692 114.308C485.215 112.539 483.216 111.284 480.982 110.722C478.747 110.159 476.392 110.319 474.254 111.178C472.116 112.037 470.305 113.551 469.081 115.503C467.857 117.454 467.282 119.744 467.439 122.042C467.597 124.341 468.478 126.531 469.957 128.297C471.435 130.064 473.436 131.317 475.671 131.877C477.906 132.437 480.261 132.274 482.398 131.413C489.816 139.33 521.979 171.792 535.294 159.109C546.487 148.448 562.638 107.129 566.526 92.8603C567.149 90.5787 567.031 88.1583 566.191 85.9477C565.35 83.7372 563.829 81.8505 561.847 80.5595Z" fill="#A0616A"/>
<path d="M401.999 116.312C392.307 90.6162 390.028 64.3796 397.57 37.4272C397.482 35.8305 398.031 34.2641 399.097 33.0717C400.163 31.8793 401.658 31.1583 403.254 31.0669L462.833 27.7218C464.43 27.6339 465.996 28.1831 467.189 29.2487C468.381 30.3143 469.102 31.8093 469.194 33.4058L473.623 112.291C473.711 113.888 473.162 115.454 472.096 116.647C471.031 117.839 469.536 118.56 467.939 118.651L408.36 121.997C406.763 122.084 405.197 121.535 404.004 120.47C402.812 119.404 402.091 117.909 401.999 116.312Z" fill="#E6E6E6"/>
<path d="M405.231 92.2292C398.515 79.8142 399.452 61.4412 402.384 41.5146C402.301 40.0192 402.816 38.5522 403.814 37.4355C404.812 36.3188 406.212 35.6436 407.707 35.558L458.91 32.6831C460.406 32.6008 461.873 33.115 462.99 34.113C464.106 35.111 464.782 36.5112 464.867 38.0064L468.809 108.203C468.891 109.699 468.377 111.166 467.379 112.283C466.381 113.399 464.981 114.075 463.485 114.16L431.766 115.941C425.105 116.308 418.57 114.017 413.596 109.572C408.621 105.126 405.613 98.8894 405.231 92.2292Z" fill="white"/>
<path d="M431.028 101.773C433.941 101.773 436.303 99.4109 436.303 96.4975C436.303 93.5841 433.941 91.2223 431.028 91.2223C428.114 91.2223 425.752 93.5841 425.752 96.4975C425.752 99.4109 428.114 101.773 431.028 101.773Z" fill="#7059FF"/>
<path d="M445.515 48.1236C443.906 45.4405 440.179 45.2007 437.051 45.271C433.824 45.2017 430.603 45.5625 427.472 46.3441C424.382 47.2625 421.44 49.142 419.949 51.9981C418.116 55.5089 418.76 59.7648 419.744 63.6005C421.64 70.9791 424.614 78.0375 428.571 84.5477L430.859 86.1113C435.54 81.8415 439.319 76.6783 441.975 70.9256C444.63 65.173 446.108 58.9473 446.32 52.615C446.482 51.0719 446.203 49.5146 445.515 48.1236Z" fill="#7059FF"/>
<path d="M108.073 319.756C88.7057 247.446 91.8254 166.4 108.073 80.2539C108.076 78.1208 108.924 76.0758 110.433 74.5674C111.941 73.0591 113.986 72.2106 116.119 72.2081H355.533C357.666 72.2106 359.712 73.0591 361.22 74.5674C362.728 76.0758 363.577 78.1208 363.579 80.2539V319.756C363.577 321.889 362.728 323.934 361.22 325.442C359.712 326.951 357.666 327.799 355.533 327.801H116.119C113.986 327.799 111.941 326.951 110.433 325.442C108.924 323.934 108.076 321.889 108.073 319.756Z" fill="#F2F2F2"/>
<path d="M109.606 259.819C104.689 201.802 105.994 143.425 113.5 85.6852C113.503 83.5521 114.351 81.507 115.86 79.9987C117.368 78.4904 119.413 77.6419 121.547 77.6394H350.104C351.161 77.6394 352.207 77.8475 353.184 78.2519C354.16 78.6562 355.047 79.2488 355.794 79.996C356.541 80.7431 357.134 81.6301 357.538 82.6062C357.943 83.5824 358.151 84.6286 358.151 85.6852V314.329C358.151 316.462 357.303 318.509 355.794 320.018C354.285 321.527 352.238 322.374 350.104 322.374H177.73C160.6 322.385 144.091 315.96 131.474 304.375C118.857 292.789 111.053 276.887 109.606 259.819Z" fill="white"/>
<path d="M255.948 122.79H159.722C159.449 122.791 159.179 122.738 158.927 122.634C158.675 122.53 158.445 122.377 158.252 122.184C158.059 121.991 157.906 121.762 157.801 121.51C157.697 121.258 157.643 120.988 157.643 120.715C157.643 120.442 157.697 120.172 157.801 119.92C157.906 119.668 158.059 119.439 158.252 119.246C158.445 119.054 158.675 118.901 158.927 118.797C159.179 118.693 159.449 118.64 159.722 118.64H255.948C256.498 118.641 257.025 118.861 257.413 119.25C257.801 119.639 258.019 120.166 258.019 120.715C258.019 121.265 257.801 121.792 257.413 122.181C257.025 122.57 256.498 122.789 255.948 122.79Z" fill="#6C63FF"/>
<path d="M304.66 141.761H159.722C159.449 141.761 159.179 141.708 158.927 141.604C158.675 141.5 158.445 141.347 158.252 141.155C158.059 140.962 157.906 140.733 157.801 140.481C157.697 140.229 157.643 139.959 157.643 139.686C157.643 139.413 157.697 139.143 157.801 138.891C157.906 138.639 158.059 138.41 158.252 138.217C158.445 138.024 158.675 137.871 158.927 137.767C159.179 137.663 159.449 137.61 159.722 137.611H304.66C305.209 137.612 305.736 137.831 306.124 138.22C306.513 138.609 306.731 139.136 306.731 139.686C306.731 140.235 306.513 140.762 306.124 141.151C305.736 141.54 305.209 141.76 304.66 141.761Z" fill="#F2F2F2"/>
<path d="M304.663 156.578H159.719C159.168 156.578 158.64 156.797 158.251 157.186C157.861 157.576 157.642 158.104 157.642 158.655C157.642 159.206 157.861 159.734 158.251 160.123C158.64 160.513 159.168 160.731 159.719 160.731H304.663C305.213 160.731 305.742 160.513 306.131 160.123C306.52 159.734 306.739 159.206 306.739 158.655C306.739 158.104 306.52 157.576 306.131 157.186C305.742 156.797 305.213 156.578 304.663 156.578Z" fill="#F2F2F2"/>
<path d="M304.66 179.702H159.722C159.172 179.702 158.644 179.483 158.255 179.094C157.866 178.705 157.647 178.177 157.647 177.627C157.647 177.076 157.866 176.549 158.255 176.16C158.644 175.77 159.172 175.552 159.722 175.552H304.66C305.21 175.552 305.738 175.77 306.127 176.16C306.516 176.549 306.735 177.076 306.735 177.627C306.735 178.177 306.516 178.705 306.127 179.094C305.738 179.483 305.21 179.702 304.66 179.702Z" fill="#F2F2F2"/>
<path d="M304.66 198.672H159.722C159.449 198.673 159.179 198.62 158.927 198.516C158.675 198.412 158.445 198.259 158.252 198.066C158.059 197.873 157.906 197.644 157.801 197.392C157.697 197.14 157.643 196.87 157.643 196.597C157.643 196.324 157.697 196.054 157.801 195.802C157.906 195.55 158.059 195.321 158.252 195.129C158.445 194.936 158.675 194.783 158.927 194.679C159.179 194.575 159.449 194.522 159.722 194.522H304.66C305.209 194.523 305.736 194.743 306.124 195.132C306.513 195.521 306.731 196.048 306.731 196.597C306.731 197.147 306.513 197.674 306.124 198.063C305.736 198.452 305.209 198.671 304.66 198.672Z" fill="#F2F2F2"/>
<path d="M304.66 217.757H159.722C159.449 217.758 159.179 217.705 158.927 217.601C158.675 217.496 158.445 217.344 158.252 217.151C158.059 216.958 157.906 216.729 157.801 216.477C157.697 216.225 157.643 215.955 157.643 215.682C157.643 215.409 157.697 215.139 157.801 214.887C157.906 214.635 158.059 214.406 158.252 214.213C158.445 214.021 158.675 213.868 158.927 213.764C159.179 213.66 159.449 213.607 159.722 213.607H304.66C305.209 213.608 305.736 213.827 306.124 214.216C306.513 214.605 306.731 215.133 306.731 215.682C306.731 216.232 306.513 216.759 306.124 217.148C305.736 217.537 305.209 217.756 304.66 217.757Z" fill="#F2F2F2"/>
<path d="M304.66 236.842H159.722C159.449 236.843 159.179 236.789 158.927 236.685C158.675 236.581 158.445 236.429 158.252 236.236C158.059 236.043 157.906 235.814 157.801 235.562C157.697 235.31 157.643 235.04 157.643 234.767C157.643 234.494 157.697 234.224 157.801 233.972C157.906 233.72 158.059 233.491 158.252 233.298C158.445 233.106 158.675 232.953 158.927 232.849C159.179 232.745 159.449 232.692 159.722 232.692H304.66C305.209 232.693 305.736 232.912 306.124 233.301C306.513 233.69 306.731 234.218 306.731 234.767C306.731 235.317 306.513 235.844 306.124 236.233C305.736 236.622 305.209 236.841 304.66 236.842Z" fill="#F2F2F2"/>
<path d="M304.66 255.927H159.722C159.449 255.928 159.179 255.874 158.927 255.77C158.675 255.666 158.445 255.514 158.252 255.321C158.059 255.128 157.906 254.899 157.801 254.647C157.697 254.395 157.643 254.125 157.643 253.852C157.643 253.579 157.697 253.309 157.801 253.057C157.906 252.805 158.059 252.576 158.252 252.383C158.445 252.191 158.675 252.038 158.927 251.934C159.179 251.83 159.449 251.777 159.722 251.777H304.66C305.209 251.778 305.736 251.997 306.124 252.386C306.513 252.775 306.731 253.303 306.731 253.852C306.731 254.402 306.513 254.929 306.124 255.318C305.736 255.707 305.209 255.926 304.66 255.927Z" fill="#F2F2F2"/>
<path d="M304.66 275.012H159.722C159.449 275.013 159.179 274.959 158.927 274.855C158.675 274.751 158.445 274.599 158.252 274.406C158.059 274.213 157.906 273.984 157.801 273.732C157.697 273.48 157.643 273.21 157.643 272.937C157.643 272.664 157.697 272.394 157.801 272.142C157.906 271.89 158.059 271.661 158.252 271.468C158.445 271.276 158.675 271.123 158.927 271.019C159.179 270.915 159.449 270.861 159.722 270.862H304.66C305.209 270.863 305.736 271.082 306.124 271.471C306.513 271.86 306.731 272.388 306.731 272.937C306.731 273.487 306.513 274.014 306.124 274.403C305.736 274.792 305.209 275.011 304.66 275.012Z" fill="#F2F2F2"/>
<path d="M270.267 148.648C263.899 146.373 255.652 147.261 251.183 152.806C247.18 157.773 246.7 165.681 251.793 170.114C257.993 175.509 266.58 173.524 273.349 170.48C279.544 167.695 286.362 163.203 286.267 155.581C286.252 153.622 285.771 151.695 284.863 149.959C283.955 148.223 282.646 146.728 281.046 145.599C279.421 144.501 277.561 143.8 275.616 143.554C273.67 143.308 271.695 143.523 269.848 144.181C268.213 144.779 268.919 147.414 270.572 146.81C271.904 146.304 273.332 146.101 274.751 146.216C276.171 146.331 277.548 146.761 278.78 147.475C280.013 148.189 281.071 149.168 281.877 150.343C282.684 151.517 283.218 152.856 283.441 154.263C284.398 160.591 278.99 164.69 273.965 167.187C268.453 169.926 261.436 172.547 255.534 169.4C250.486 166.708 249.563 160.568 252.362 155.853C255.832 150.007 263.644 149.17 269.542 151.277C271.197 151.868 271.91 149.235 270.267 148.648Z" fill="#6C63FF"/>
<path d="M184.835 186.818C178.467 184.543 170.22 185.43 165.751 190.976C161.748 195.943 161.268 203.851 166.361 208.283C172.561 213.679 181.148 211.694 187.917 208.65C194.112 205.864 200.93 201.373 200.834 193.751C200.82 191.792 200.339 189.865 199.431 188.129C198.523 186.393 197.214 184.898 195.613 183.769C193.989 182.671 192.129 181.97 190.184 181.724C188.238 181.478 186.262 181.693 184.415 182.351C182.781 182.948 183.487 185.584 185.14 184.98C186.472 184.474 187.899 184.271 189.319 184.386C190.739 184.5 192.116 184.931 193.348 185.644C194.581 186.358 195.639 187.338 196.445 188.512C197.252 189.687 197.786 191.026 198.009 192.433C198.966 198.761 193.558 202.86 188.533 205.357C183.021 208.096 176.004 210.717 170.102 207.57C165.054 204.878 164.131 198.738 166.93 194.023C170.399 188.176 178.211 187.34 184.11 189.447C185.765 190.038 186.478 187.405 184.835 186.818Z" fill="#E6E6E6"/>
<path d="M269.358 263.158C262.99 260.883 254.743 261.77 250.274 267.315C246.271 272.282 245.791 280.191 250.884 284.623C257.084 290.019 265.671 288.034 272.44 284.99C278.635 282.204 285.453 277.713 285.358 270.091C285.343 268.132 284.862 266.205 283.954 264.469C283.046 262.733 281.737 261.238 280.137 260.108C278.512 259.01 276.652 258.31 274.707 258.064C272.762 257.817 270.786 258.032 268.939 258.691C267.304 259.288 268.01 261.924 269.664 261.32C270.995 260.813 272.423 260.61 273.842 260.725C275.262 260.84 276.639 261.27 277.871 261.984C279.104 262.698 280.162 263.678 280.968 264.852C281.775 266.027 282.309 267.366 282.532 268.773C283.489 275.101 278.082 279.2 273.057 281.697C267.544 284.436 260.527 287.057 254.626 283.91C249.577 281.218 248.654 275.078 251.453 270.362C254.923 264.516 262.735 263.679 268.633 265.787C270.288 266.378 271.001 263.745 269.358 263.158Z" fill="#E6E6E6"/>
<path d="M266.274 288.949C268.334 302.201 274.575 314.449 284.085 323.906C291.346 330.999 300.235 336.203 309.975 339.063C319.714 341.922 330.007 342.35 339.95 340.308C341.649 339.953 341.428 337.233 339.711 337.592C327.57 340.106 314.949 338.807 303.574 333.873C294.49 329.842 286.562 323.595 280.52 315.704C274.477 307.813 270.513 298.531 268.99 288.71C268.727 286.981 266.009 287.21 266.274 288.949Z" fill="#E6E6E6"/>
<path d="M344.062 357.849L364.342 346.171C364.513 346.051 364.655 345.893 364.756 345.709C364.857 345.526 364.915 345.321 364.925 345.112C364.935 344.903 364.896 344.694 364.813 344.502C364.729 344.31 364.603 344.139 364.443 344.004L343.563 328.889C342.15 327.866 340.387 329.947 341.812 330.978C348.772 336.016 355.731 341.055 362.691 346.093L362.793 343.926L342.513 355.604C340.99 356.481 342.551 358.719 344.062 357.849Z" fill="#E6E6E6"/>
<path d="M283.542 142.807C285.603 129.554 291.843 117.306 301.353 107.849C308.614 100.756 317.503 95.5522 327.243 92.6928C336.982 89.8334 347.275 89.4059 357.218 91.4478C358.917 91.8027 358.696 94.5224 356.979 94.1638C344.838 91.6496 332.217 92.9485 320.842 97.8826C311.758 101.914 303.83 108.161 297.788 116.052C291.745 123.943 287.781 133.224 286.258 143.045C285.995 144.774 283.277 144.546 283.542 142.807Z" fill="#3F3D56"/>
<path d="M361.33 73.9066L381.61 85.5848C381.781 85.7049 381.923 85.8628 382.024 86.0463C382.125 86.2298 382.183 86.434 382.193 86.6433C382.203 86.8525 382.164 87.0613 382.081 87.2534C381.997 87.4456 381.871 87.616 381.711 87.7516L360.832 102.866C359.418 103.889 357.655 101.808 359.08 100.777L379.959 85.6625L380.061 87.8293L359.781 76.1512C358.258 75.2742 359.819 73.0367 361.33 73.9066Z" fill="#3F3D56"/>
<path d="M175.386 216.244C173.326 229.497 167.086 241.745 157.576 251.202C150.315 258.295 141.425 263.499 131.686 266.358C121.946 269.218 111.654 269.645 101.711 267.603C100.012 267.248 100.232 264.529 101.949 264.887C114.09 267.401 126.712 266.103 138.086 261.168C147.171 257.137 155.098 250.89 161.141 242.999C167.183 235.108 171.148 225.827 172.67 216.006C172.934 214.277 175.652 214.505 175.386 216.244Z" fill="#E6E6E6"/>
<path d="M97.5987 285.144L77.3186 273.466C77.147 273.346 77.0052 273.188 76.9041 273.005C76.8031 272.821 76.7454 272.617 76.7356 272.408C76.7258 272.198 76.7641 271.99 76.8476 271.797C76.9311 271.605 77.0575 271.435 77.2172 271.299L98.097 256.184C99.5101 255.161 101.273 257.243 99.8488 258.274L78.969 273.388L78.8676 271.222L99.1477 282.9C100.671 283.777 99.1094 286.014 97.5987 285.144Z" fill="#E6E6E6"/>
<path d="M13.3266 313.872C3.16488 296.389 -1.67865 277.612 0.52267 257.122C0.264821 255.973 0.473247 254.769 1.10224 253.774C1.73123 252.778 2.72942 252.073 3.8778 251.812L46.7389 242.143C47.8879 241.885 49.0922 242.094 50.0877 242.723C51.0832 243.352 51.7885 244.35 52.049 245.498L64.8529 302.248C65.1107 303.397 64.9023 304.601 64.2733 305.597C63.6443 306.592 62.6461 307.298 61.4978 307.558L18.6366 317.227C17.4877 317.485 16.2833 317.277 15.2878 316.648C14.2923 316.019 13.587 315.021 13.3266 313.872Z" fill="#F2F2F2"/>
<path d="M12.7469 295.99C6.36029 287.79 4.80764 274.333 4.5154 259.506C4.27389 258.43 4.46909 257.302 5.05816 256.369C5.64724 255.437 6.58208 254.777 7.65759 254.533L44.4931 246.223C45.5692 245.981 46.6971 246.176 47.6294 246.765C48.5618 247.355 49.2224 248.289 49.4663 249.365L60.86 299.865C61.1015 300.941 60.9062 302.069 60.3171 303.001C59.728 303.933 58.7931 304.594 57.7176 304.838L34.8988 309.985C30.1056 311.061 25.0815 310.192 20.9287 307.568C16.7758 304.944 13.8334 300.78 12.7469 295.99Z" fill="white"/>
<path d="M31.9997 299.839C34.145 299.839 35.8841 298.1 35.8841 295.955C35.8841 293.809 34.145 292.07 31.9997 292.07C29.8544 292.07 28.1152 293.809 28.1152 295.955C28.1152 298.1 29.8544 299.839 31.9997 299.839Z" fill="#F2F2F2"/>
<path d="M36.6418 259.064C35.1467 257.311 32.4111 257.59 30.1478 258.021C27.7962 258.363 25.5007 259.016 23.3218 259.964C22.2337 260.444 21.2514 261.135 20.4317 261.997C19.6119 262.858 18.9708 263.874 18.5455 264.984C17.6414 267.757 18.6259 270.769 19.8068 273.435C22.0803 278.563 25.0982 283.328 28.7628 287.575L30.6145 288.432C33.4952 284.763 35.6125 280.554 36.8418 276.053C38.0711 271.553 38.3874 266.852 37.7723 262.228C37.702 261.087 37.31 259.99 36.6418 259.064Z" fill="#F2F2F2"/>
<path d="M31.9997 299.839C34.145 299.839 35.8841 298.1 35.8841 295.955C35.8841 293.809 34.145 292.07 31.9997 292.07C29.8544 292.07 28.1152 293.809 28.1152 295.955C28.1152 298.1 29.8544 299.839 31.9997 299.839Z" fill="#E6E6E6"/>
<path d="M36.6418 259.064C35.1467 257.311 32.4111 257.59 30.1478 258.021C27.7962 258.363 25.5007 259.016 23.3218 259.964C22.2337 260.444 21.2514 261.135 20.4317 261.997C19.6119 262.858 18.9708 263.874 18.5455 264.984C17.6414 267.757 18.6259 270.769 19.8068 273.435C22.0803 278.563 25.0982 283.328 28.7628 287.575L30.6145 288.432C33.4952 284.763 35.6125 280.554 36.8418 276.053C38.0711 271.553 38.3874 266.852 37.7723 262.228C37.702 261.087 37.31 259.99 36.6418 259.064Z" fill="#E6E6E6"/>
<path d="M572.207 483.449L561.776 483.448L556.813 443.216H572.209L572.207 483.449Z" fill="#A0616A"/>
<path d="M540.722 498.839C540.727 500.008 541.193 501.127 542.019 501.954C542.844 502.781 543.963 503.249 545.131 503.257H564.768L565.376 501.996L568.154 496.265L569.23 501.996L569.468 503.257H576.875L576.769 501.987L574.794 478.304L572.21 478.145L561.047 477.484L558.305 477.317V484.388C556.224 486.601 539.894 494.969 540.722 498.839Z" fill="#2F2E41"/>
<path d="M531.473 475.356L521.629 478.808L503.631 442.484L518.16 437.39L531.473 475.356Z" fill="#A0616A"/>
<path d="M506.856 500.299C507.247 501.4 508.058 502.302 509.11 502.809C510.163 503.316 511.373 503.388 512.478 503.008L531.009 496.51L531.166 495.119L531.89 488.792L534.802 493.844L535.444 494.955L542.433 492.504L541.913 491.341L532.212 469.646L529.721 470.351L518.968 473.421L516.325 474.17L518.665 480.843C517.434 483.62 504.793 496.92 506.856 500.299Z" fill="#2F2E41"/>
<path d="M523.364 161.346L529.831 190.577L577.124 194.854L581.47 169.402L523.364 161.346Z" fill="#A0616A"/>
<path d="M580.281 181.884L527.063 180.995L525.918 196.53L484.822 320.06L477.52 350.431L498.451 463.2L533.896 463.178C533.896 463.178 533.16 433.551 531.745 432.323C530.331 431.095 527.378 432.341 529.567 426.015C531.757 419.688 533.372 417.645 530.782 415.102C528.192 412.559 525.06 414.692 526.982 408.634C528.905 402.577 544.59 319.875 544.59 319.875V468.148H581.059C581.059 468.148 588.694 461.174 585.18 457.542C581.665 453.909 578.813 453.196 581.665 448.206C584.517 443.215 590.706 444.473 585.473 438.14C581.315 433.11 591.261 294.375 595.525 237.56C596.677 222.205 591.775 207.009 581.868 195.222L580.281 181.884Z" fill="#2F2E41"/>
<path d="M552.881 66.3934L576.42 65.1808L587.354 82.4563C587.354 82.4563 607.926 85.8955 606.5 110.136C605.074 134.376 581.47 155.647 581.47 155.647L582.479 152.188L580.727 157.195L580.951 160.006L583.342 162.983L583.588 166.062L581.47 170.934L584.35 175.599L523.794 169.732L521.579 161.666L524.81 157.334L523.005 151.685L525.718 146.25L527.133 145.072C527.133 145.072 511.658 121.824 529.422 104.315L536.552 92.1945L544.53 82.4619L552.881 66.3934Z" fill="#7059FF"/>
<path d="M558.739 56.1956C571.067 56.1956 581.061 46.2021 581.061 33.8745C581.061 21.5469 571.067 11.5533 558.739 11.5533C546.411 11.5533 536.417 21.5469 536.417 33.8745C536.417 46.2021 546.411 56.1956 558.739 56.1956Z" fill="#A0616A"/>
<path d="M575.693 66.0296C573.876 64.5108 572.61 62.4342 572.094 60.1224C571.681 62.9293 571.789 65.7883 572.412 68.5561C571.204 69.4649 570.031 70.3283 568.922 71.1098C568.083 68.9513 566.932 66.9274 565.505 65.1026C565.369 67.9745 565.242 70.8554 565.114 73.7272C563.698 74.6867 562.206 75.5286 560.652 76.2446L561.315 75.4539C566.078 68.438 553.754 55.5238 558.516 48.5169C559.852 46.5539 553.817 31.0406 549.218 30.3408C545.129 29.7228 545.301 30.9043 541.339 31.7676C540.927 30.0515 540.288 28.3981 539.439 26.851C539.665 28.5749 539.613 30.3239 539.285 32.0312C537.876 32.0857 536.768 31.1882 535.268 30.9588C525.697 29.4956 526.67 19.1444 529.333 15.8635C532.005 12.5918 540.875 11.6103 544.965 10.547C545.338 10.1835 546.183 10.4107 546.556 10.0654C554.393 2.89258 564.876 1.70471 574.31 4.88384C575.157 5.17621 575.981 5.53458 576.772 5.95564C584.779 10.1512 591.632 15.9261 591.135 24.9516C590.902 29.1789 589.942 29.8369 591.135 32.222C591.427 32.8073 588.863 38.318 593.18 38.9053C597.497 39.4925 595.55 42.825 596.588 44.0365C600.608 48.7301 586.201 62.4197 575.693 66.0296Z" fill="#2F2E41"/>
<path d="M373.585 376.482C368.901 356.81 369.682 337.434 377.702 318.451C377.787 317.277 378.334 316.184 379.224 315.412C380.113 314.641 381.272 314.254 382.447 314.336L426.275 317.445C427.45 317.53 428.543 318.077 429.314 318.966C430.086 319.856 430.473 321.015 430.391 322.19L426.273 380.22C426.189 381.395 425.642 382.488 424.752 383.259C423.863 384.031 422.703 384.418 421.529 384.336L377.701 381.226C376.526 381.142 375.433 380.595 374.661 379.705C373.89 378.816 373.503 377.657 373.585 376.482Z" fill="#F2F2F2"/>
<path d="M378.19 359.193C374.442 349.499 376.838 336.167 380.838 321.885C380.917 320.786 381.429 319.762 382.262 319.039C383.095 318.317 384.181 317.954 385.281 318.031L422.948 320.703C424.048 320.783 425.071 321.295 425.794 322.128C426.517 322.961 426.879 324.047 426.803 325.147L423.138 376.786C423.059 377.886 422.547 378.91 421.714 379.632C420.88 380.355 419.795 380.718 418.695 380.641L395.361 378.985C390.461 378.632 385.902 376.35 382.683 372.639C379.464 368.929 377.848 364.093 378.19 359.193Z" fill="white"/>
<path d="M396.634 368.599C398.779 368.599 400.518 366.86 400.518 364.715C400.518 362.57 398.779 360.831 396.634 360.831C394.489 360.831 392.75 362.57 392.75 364.715C392.75 366.86 394.489 368.599 396.634 368.599Z" fill="#F2F2F2"/>
<path d="M411.725 330.733C410.799 328.623 408.099 328.1 405.808 327.86C403.458 327.509 401.071 327.472 398.711 327.751C397.531 327.897 396.391 328.275 395.358 328.863C394.324 329.452 393.417 330.239 392.69 331.18C391.024 333.573 391.097 336.742 391.458 339.635C392.155 345.201 393.67 350.634 395.953 355.758L397.479 357.113C401.296 354.43 404.538 351.012 407.013 347.057C409.489 343.103 411.148 338.694 411.894 334.088C412.156 332.976 412.097 331.813 411.725 330.733Z" fill="#F2F2F2"/>
<path d="M608.241 171.781L607.362 103.342C607.316 100.442 606.132 97.6771 604.066 95.6429C601.999 93.6087 599.215 92.4686 596.315 92.4686C594.815 92.4686 593.331 92.7742 591.952 93.3666C590.574 93.959 589.331 94.8259 588.299 95.9144C587.266 97.0029 586.466 98.2903 585.948 99.6979C585.429 101.106 585.203 102.604 585.283 104.102L588.375 175.166L588.434 218.426C586.611 219.199 585.071 220.514 584.022 222.193C582.972 223.872 582.466 225.833 582.57 227.81C582.674 229.787 583.385 231.684 584.605 233.243C585.825 234.802 587.495 235.948 589.389 236.524C591.283 237.101 593.308 237.081 595.19 236.467C597.072 235.852 598.719 234.673 599.908 233.09C601.097 231.507 601.769 229.596 601.834 227.618C601.899 225.639 601.353 223.689 600.27 222.031L608.241 171.781Z" fill="#A0616A"/>
<path d="M666.65 504.068H636.488L636.359 503.833C635.973 503.134 635.601 502.393 635.253 501.631C632.146 494.98 630.833 487.374 629.674 480.662L628.802 475.603C628.696 474.991 628.776 474.36 629.03 473.793C629.285 473.226 629.703 472.748 630.231 472.42C630.759 472.092 631.373 471.928 631.995 471.951C632.616 471.974 633.216 472.182 633.719 472.548C638.303 475.883 642.888 479.215 647.475 482.544C649.212 483.807 651.196 485.27 653.096 486.851C653.279 485.961 653.471 485.068 653.662 484.187C653.795 483.579 654.105 483.025 654.555 482.595C655.004 482.164 655.571 481.878 656.184 481.772C656.797 481.666 657.428 481.745 657.996 482C658.563 482.254 659.042 482.672 659.371 483.2L662.9 488.87C665.473 493.01 667.745 497.09 667.282 501.49C667.285 501.544 667.281 501.597 667.27 501.65C667.178 502.373 667.006 503.083 666.758 503.768L666.65 504.068Z" fill="#F0F0F0"/>
<path d="M696.924 504.721L410.311 505C410.025 504.999 409.751 504.884 409.549 504.681C409.347 504.478 409.234 504.204 409.234 503.918C409.234 503.632 409.347 503.357 409.549 503.155C409.751 502.952 410.025 502.837 410.311 502.836L696.924 502.557C697.209 502.558 697.483 502.673 697.685 502.876C697.886 503.078 697.999 503.353 697.999 503.639C697.999 503.925 697.886 504.199 697.685 504.402C697.483 504.604 697.209 504.719 696.924 504.721Z" fill="#CACACA"/>
</g>
<defs>
<clipPath id="clip0_15_2515">
<rect width="698" height="505" fill="white"/>
</clipPath>
</defs>
</svg>
